<?xml version="1.0" encoding="utf-8"?>
<!-- Generator: Adobe Illustrator 15.1.0, SVG Export Plug-In . SVG Version: 6.00 Build 0)  -->
<!DOCTYPE svg PUBLIC "-//W3C//DTD SVG 1.1//EN" "http://www.w3.org/Graphics/SVG/1.1/DTD/svg11.dtd">
<svg version="1.1" id="Layer_1" xmlns="http://www.w3.org/2000/svg" xmlns:xlink="http://www.w3.org/1999/xlink" x="0px" y="0px"
	 width="1000px" height="1000px" viewBox="0 0 1000 1000" enable-background="new 0 0 1000 1000" xml:space="preserve">
<desc  style="-webkit-tap-highlight-color: rgba(0, 0, 0, 0);">Created with Raphaël 2.1.0</desc>
<path fill="#FFFF00" stroke="#666666" stroke-width="25" stroke-linejoin="round" d="M421.328,287.351l18.467-4.644l4.069-2.841
	l0.124-21.468l21.334-32.36l5.056-2.684l5.057-0.789l3.576,2.367l4.069-3.157l1.85-6.472l-9.496-25.572l0.856-7.261l29.585-25.888
	l17.884,2.368l32.692-17.995l12.082-0.474l23.556,6.788l13.815,9.63l3.701,27.149l4.188,5.21l7.897,47.514l97.57,87.453l4.223-1.999
	l-11.736-44.569l4.271-37.241l8.063-0.766l39.504,9.097l15.141,8.863l6.437,1.363l6.585,4.391l3.729,8.296l-0.916,18.339
	l-7.931,8.97l-2.375,16.06l2.211,6.179l8.92,3.49l-1.729,6.156l17.644,6.789l4.266,8.805l4.854,4.297l5.673,1.894l12.828-1.421
	l10.235-5.683l11.718-0.473l4.687,1.894l4.065-0.929l4.812,1.702l-8.035,73.623l0.521,1.366l0.809,0.811l2.096,0.864l5.067-0.277
	l1.107,0.419l0.938,0.949l0.633,1.338l1.007,1.116l2.447,0.782l0.605,1.255l-0.282,4.66l6.137,3.571l1.856,2.373l-16.203,86.812
	l-4.209,7.565l-1.311,0.474l0.616,6.707l-2.536,3.182l-8.28,21.479l-0.203,17.105l3.946,10.072l-6.591,84.918l1.396-0.921
	l2.073-4.551l4.666-2.677l1.28-0.226l15.553-9.57h1.329l2.746,1.508l3.754,8.032l-0.196,2.063l-6.517,7.83l-2.156,1.399
	l-0.854,1.365l-0.19,1.783l0.896,2.54l3.445,3.578l3.663,19.472l1.266,1.646l6.481,3.993l1.92,0.528l1.371-0.143l1.98-1.428
	l2.683-6.021l1.354-1.341l1.564-0.084l1.524,0.587l6.047,6.36l9.978-0.337l1.149,0.419l0.547-0.104l-0.063-0.111l2.33,0.062
	l2.114-1.115l1.396-0.25l2.272,0.802l13.369,12.005l0.605,1.09l0.456,14.788l1.614,1.642l0.261,5.441l2.787,4.384l1.255,40.722
	l-4.354,14.874l-1.135,0.729l-2.664,0.301l-40.831-13.949l-4.233-3.015l-25.87-8.855l-73.434-56.528l-2.667-0.419l-3.952,0.897
	l-0.355,1.112l-4.743,2.061l-7.776,0.477l-5.569,2.021l-13.747,0.583l-7.807,4.214l-5.492,7.933l-2.661,1.616l-30.581-2.729
	l-3.098,1.673l-50.878,50.122l-47.552,7.562l-2.904,15.621l-1.003,1.702l-0.136,25.89l6.776,19.646l0.063,2.229l-1.268,0.925
	l-19.482-8.797l-8.248-1.032l-27.814,8.167l-7.236,7.897l-4.209-0.146l-3.014-1.092l-13.207-12.943l-83.181-18.618l-1.004-0.84
	l-98.432-29.561l-1.569,4.409l0.178,4.237l-9.503,26.848l-2.396,1.229l-7.714-2.958h-2.744l-2.271,2.063l-1.876,17.027l-1.354,2.854
	l-17.966,4.416l-12.392-22.649l-35.04-21.267l-2.791,0.223l-4.535,5.751l-26.472,14.18l-8.549,0.392l-20.886-9.83l-8.809,1.006
	l-4.361,2.459l-3.618,0.44l-11.253-6.021l-21.111-0.505l-25.116,10.559l-2.484,2.118l-5.793,13.608l-1.654,1.008l-2.271,0.56
	l-10.894-4.188l-1.05-3.183l0.396-13.28l4.709-8.538l29.687-10.5l7.411-5.585l1.004-2.396l-0.396-2.731l-1.741-2.063l-39.448,0.609
	l-1.74-1.843l-2.439-12.112l-14.553-20.076l-0.786-7.542l5.803-18.086l0.041-5.754l-41-11.283l-5.059-3.905l-4.889-11.272
	l-1.437-21.254l-1.313-1.619L3.701,688.172l-1.483-1.729l-0.916-2.23l0.262-2.896l49.748-56.147l12.784-73.776l-0.83-2.896
	l-31.949-25.327l-0.697-2.9l1.746-12.386l-0.65-2.622l-2.186-1.953l-16.643-2.452l0.438-4.239l13.564-16.679l0.696-2.684
	l-4.102-31.255l10.099-47.774l2.005-3.459l14.082-10.324l3.913-28.151l2.396-0.781l5.056,0.669l57.567,51.235l7.85,2.343
	l8.416-0.948l1.742,2.232l0.346,5.748l-3.309,10.66l0.652,3.57l6.539,6.475l42.767-1.562l13.342-21.933l0.521-2.957l-0.396-3.739
	l0.696-3.126l8.152-4.353l1.353-1.786l0.916-2.455l0.133-2.735l-0.742-2.121l-1.696-1.45l-5.053-0.335l-2.527-1.116l-0.915-3.181
	l1.222-3.517l1.965-1.563l2.396-0.333l2.617,0.558l4.883-1.341l4.229,1.005l47.821-28.464l-7.333-18.529l0.782-3.013l1.61-2.512
	l2.228-1.284l2.094-0.502l10.036-6.641l10.928-0.949l2.095,1.618l13.563,1.005l20.807-17.693l36.009-2.064l29.74-20.76l6.452-2.01
	l1.269-2.232l-0.916-6.808l3.36-8.538l2.703-1.842l2.004,0.559l13.75,24.724L421.328,287.351L421.328,287.351z"/>
</svg>
